<svg width="40" height="40" viewBox="0 0 40 40" fill="none" xmlns="http://www.w3.org/2000/svg">
<path fill-rule="evenodd" clip-rule="evenodd" d="M40 20C40 31.0457 31.0457 40 20 40C14.6957 40 9.60859 37.8929 5.85786 34.1421C2.10714 30.3914 1.28474e-06 25.3043 1.74846e-06 20C2.7141e-06 8.9543 8.95431 -2.7141e-06 20 -1.74846e-06C31.0457 -7.8281e-07 40 8.95431 40 20ZM16.7968 9.83453C16.4887 10.1422 16.487 10.6409 16.793 10.9507L25.8488 20L16.793 29.0486C16.487 29.3584 16.4887 29.8571 16.7968 30.1648C17.1048 30.4725 17.6035 30.4736 17.913 30.1674L27.529 20.5587C27.6775 20.4105 27.761 20.2092 27.761 19.9994C27.761 19.7895 27.6775 19.5882 27.529 19.44L17.913 9.83199C17.6035 9.52571 17.1048 9.52685 16.7968 9.83453Z" fill="#FDA529"/>
</svg>
