<svg width="20" height="20" viewBox="0 0 20 20" fill="none" xmlns="http://www.w3.org/2000/svg">
<path fill-rule="evenodd" clip-rule="evenodd" d="M0 10C0 4.47715 4.47715 0 10 0C12.6522 0 15.1957 1.05357 17.0711 2.92893C18.9464 4.8043 20 7.34784 20 10C20 15.5228 15.5228 20 10 20C4.47715 20 0 15.5228 0 10ZM11.6017 15.0827C11.7557 14.9289 11.7566 14.6795 11.6036 14.5246L7.0757 9.99998L11.6036 5.47566C11.7566 5.32077 11.7557 5.07142 11.6017 4.91757C11.4477 4.76373 11.1983 4.76316 11.0436 4.9163L6.23562 9.72062C6.16134 9.79474 6.1196 9.89537 6.1196 10.0003C6.1196 10.1052 6.16134 10.2059 6.23562 10.28L11.0436 15.084C11.1983 15.2371 11.4477 15.2366 11.6017 15.0827Z" fill="#362D1B"/>
</svg>
