<svg width="21" height="24" viewBox="0 0 21 24" fill="none" xmlns="http://www.w3.org/2000/svg">
<path d="M20.1199 23.52C20.1199 23.7851 19.905 24 19.6399 24H1.39992C1.13483 24 0.919922 23.7851 0.919922 23.52C0.919922 23.2549 1.13483 23.04 1.39992 23.04H2.83992V16.32H12.9199C13.185 16.32 13.3999 16.1051 13.3999 15.84C13.3999 15.5749 13.185 15.36 12.9199 15.36H2.83992V12.48H12.9199C13.185 12.48 13.3999 12.2651 13.3999 12C13.3999 11.7349 13.185 11.52 12.9199 11.52H2.83992C2.84356 10.5479 2.97043 9.58019 3.21749 8.64H12.9199C13.185 8.64 13.3999 8.4251 13.3999 8.16C13.3999 7.8949 13.185 7.68 12.9199 7.68H3.50943C3.87235 6.65336 4.37962 5.68362 5.01595 4.8H12.9199C13.185 4.8 13.3999 4.5851 13.3999 4.32C13.3999 4.0549 13.185 3.84 12.9199 3.84H5.79067C7.96888 1.39668 11.0866 -0.000423646 14.3599 9.63627e-08H16.2799C16.8101 9.63627e-08 17.2399 0.429807 17.2399 0.96V23.04H19.6399C19.905 23.04 20.1199 23.2549 20.1199 23.52Z" fill="#362D1B"/>
</svg>
