<svg width="32" height="32" viewBox="0 0 32 32" fill="none" xmlns="http://www.w3.org/2000/svg">
<circle cx="16" cy="16" r="16" fill="#FFF7EB"/>
<path d="M22.6 23.68C22.6 23.8567 22.4568 24 22.28 24H10.12C9.94332 24 9.80005 23.8567 9.80005 23.68C9.80005 23.5033 9.94332 23.36 10.12 23.36H11.08V18.88H17.8C17.9768 18.88 18.12 18.7367 18.12 18.56C18.12 18.3833 17.9768 18.24 17.8 18.24H11.08V16.32H17.8C17.9768 16.32 18.12 16.1767 18.12 16C18.12 15.8233 17.9768 15.68 17.8 15.68H11.08C11.0825 15.0319 11.1671 14.3868 11.3318 13.76H17.8C17.9768 13.76 18.12 13.6167 18.12 13.44C18.12 13.2633 17.9768 13.12 17.8 13.12H11.5264C11.7683 12.4356 12.1065 11.7891 12.5307 11.2H17.8C17.9768 11.2 18.12 11.0567 18.12 10.88C18.12 10.7033 17.9768 10.56 17.8 10.56H13.0472C14.4994 8.93112 16.5779 7.99972 18.76 8H20.04C20.3935 8 20.68 8.28654 20.68 8.64V23.36H22.28C22.4568 23.36 22.6 23.5033 22.6 23.68Z" fill="#FDA529"/>
</svg>
