<svg width="24" height="24" viewBox="0 0 24 24" fill="none" xmlns="http://www.w3.org/2000/svg">
<path d="M18.8945 5.10523C17.531 3.74167 15.7937 2.81307 13.9024 2.43686C12.0111 2.06065 10.0507 2.25374 8.26908 2.99169C6.4875 3.72964 4.96476 4.97933 3.89342 6.58271C2.82207 8.18608 2.25024 10.0711 2.25024 11.9995C2.25024 13.9279 2.82207 15.8129 3.89342 17.4163C4.96476 19.0197 6.4875 20.2694 8.26908 21.0073C10.0507 21.7453 12.0111 21.9384 13.9024 21.5622C15.7937 21.186 17.531 20.2574 18.8945 18.8938C20.7205 17.064 21.746 14.5845 21.746 11.9995C21.746 9.41448 20.7205 6.93503 18.8945 5.10523ZM15.3745 13.8745C15.3745 14.0734 15.2955 14.2642 15.1549 14.4048C15.0142 14.5455 14.8234 14.6245 14.6245 14.6245C14.4256 14.6245 14.2348 14.5455 14.0942 14.4048C13.9535 14.2642 13.8745 14.0734 13.8745 13.8745V11.1851L9.90479 15.1548C9.7641 15.2952 9.57344 15.374 9.37469 15.3739C9.17593 15.3738 8.98535 15.2948 8.84481 15.1542C8.70427 15.0137 8.62527 14.8231 8.62516 14.6244C8.62506 14.4256 8.70386 14.2349 8.84425 14.0942L12.814 10.1245H10.1245C9.92561 10.1245 9.73484 10.0455 9.59419 9.90485C9.45354 9.7642 9.37452 9.57343 9.37452 9.37452C9.37452 9.17561 9.45354 8.98484 9.59419 8.84419C9.73484 8.70354 9.92561 8.62452 10.1245 8.62452H14.6245C14.8232 8.6252 15.0136 8.70443 15.1541 8.84494C15.2946 8.98545 15.3738 9.17582 15.3745 9.37452V13.8745Z" fill="#FDA529"/>
</svg>
