<svg width="24" height="24" viewBox="0 0 24 24" fill="none" xmlns="http://www.w3.org/2000/svg">
<path fill-rule="evenodd" clip-rule="evenodd" d="M17.7183 12.9076C18.2425 13.7822 19.1653 14.3409 20.1833 14.3999C21.2012 14.3409 22.1241 13.7822 22.6482 12.9076C23.1724 12.033 23.23 10.9557 22.8021 10.0302L20.5894 4.79992H21.6233C21.8884 4.79992 22.1033 4.58502 22.1033 4.31992C22.1033 4.05483 21.8884 3.83992 21.6233 3.83992H12.5033V2.39992C12.5033 2.13483 12.2884 1.91992 12.0233 1.91992C11.7582 1.91992 11.5433 2.13483 11.5433 2.39992V3.83992H2.42327C2.15817 3.83992 1.94327 4.05483 1.94327 4.31992C1.94327 4.58502 2.15817 4.79992 2.42327 4.79992H3.45719L1.24448 10.0302C0.816553 10.9557 0.874141 12.033 1.3983 12.9076C1.92246 13.7822 2.84532 14.3409 3.86327 14.3999C4.88122 14.3409 5.80408 13.7822 6.32824 12.9076C6.8524 12.033 6.90998 10.9557 6.48205 10.0302L4.26935 4.79992H11.5433V18.7199C11.5433 18.985 11.7582 19.1999 12.0233 19.1999C12.2884 19.1999 12.5033 18.985 12.5033 18.7199V4.79992H19.7772L17.5645 10.0302C17.1366 10.9557 17.1941 12.033 17.7183 12.9076ZM9.14326 21.1199C8.87817 21.1199 8.66326 20.905 8.66326 20.6399C8.66326 20.3748 8.87817 20.1599 9.14326 20.1599H14.9033C15.1684 20.1599 15.3833 20.3748 15.3833 20.6399C15.3833 20.905 15.1684 21.1199 14.9033 21.1199H9.14326ZM17.7833 22.0799H6.26326C5.99817 22.0799 5.78326 22.2948 5.78326 22.5599C5.78326 22.825 5.99817 23.0399 6.26326 23.0399H17.7833C18.0484 23.0399 18.2633 22.825 18.2633 22.5599C18.2633 22.2948 18.0484 22.0799 17.7833 22.0799ZM3.86327 6.30395L2.12865 10.4043C2.11649 10.433 2.10947 10.4627 2.10244 10.4924C2.09709 10.515 2.09174 10.5376 2.0841 10.5599H5.64244C5.63482 10.5377 5.62949 10.5151 5.62417 10.4925C5.61714 10.4628 5.61013 10.4331 5.5979 10.4043L3.86327 6.30395ZM21.9442 10.4925C21.9495 10.5151 21.9548 10.5377 21.9624 10.5599H18.4041C18.4117 10.5376 18.4171 10.515 18.4224 10.4924C18.4295 10.4627 18.4365 10.433 18.4486 10.4043L20.1833 6.30395L21.9179 10.4043C21.9301 10.4331 21.9371 10.4628 21.9442 10.4925Z" fill="#362D1B"/>
</svg>
