<svg width="32" height="32" viewBox="0 0 32 32" fill="none" xmlns="http://www.w3.org/2000/svg">
<circle cx="16" cy="16" r="16" fill="#FFF7EB"/>
<path fill-rule="evenodd" clip-rule="evenodd" d="M19.8121 16.6051C20.1616 17.1882 20.7768 17.5607 21.4554 17.6C22.1341 17.5607 22.7493 17.1882 23.0987 16.6051C23.4482 16.0221 23.4866 15.3039 23.2013 14.6869L21.7262 11.2H22.4154C22.5922 11.2 22.7354 11.0568 22.7354 10.88C22.7354 10.7033 22.5922 10.56 22.4154 10.56H16.3354V9.60003C16.3354 9.4233 16.1922 9.28003 16.0154 9.28003C15.8387 9.28003 15.6954 9.4233 15.6954 9.60003V10.56H9.61543C9.4387 10.56 9.29543 10.7033 9.29543 10.88C9.29543 11.0568 9.4387 11.2 9.61543 11.2H10.3047L8.82957 14.6869C8.54429 15.3039 8.58268 16.0221 8.93212 16.6051C9.28156 17.1882 9.8968 17.5607 10.5754 17.6C11.2541 17.5607 11.8693 17.1882 12.2187 16.6051C12.5682 16.0221 12.6066 15.3039 12.3213 14.6869L10.8462 11.2H15.6954V20.48C15.6954 20.6568 15.8387 20.8 16.0154 20.8C16.1922 20.8 16.3354 20.6568 16.3354 20.48V11.2H21.1847L19.7096 14.6869C19.4243 15.3039 19.4627 16.0221 19.8121 16.6051ZM14.0954 22.0801C13.9187 22.0801 13.7754 21.9368 13.7754 21.7601C13.7754 21.5834 13.9187 21.4401 14.0954 21.4401H17.9354C18.1121 21.4401 18.2554 21.5834 18.2554 21.7601C18.2554 21.9368 18.1121 22.0801 17.9354 22.0801H14.0954ZM19.8555 22.7201H12.1755C11.9987 22.7201 11.8555 22.8633 11.8555 23.0401C11.8555 23.2168 11.9987 23.3601 12.1755 23.3601H19.8555C20.0322 23.3601 20.1755 23.2168 20.1755 23.0401C20.1755 22.8633 20.0322 22.7201 19.8555 22.7201ZM10.5754 12.2027L9.41902 14.9363C9.41091 14.9554 9.40624 14.9752 9.40155 14.995L9.40155 14.995C9.39798 15.0101 9.39441 15.0252 9.38932 15.04H11.7615C11.7565 15.0252 11.7529 15.0101 11.7494 14.9951C11.7447 14.9752 11.74 14.9554 11.7319 14.9363L10.5754 12.2027ZM22.6294 14.9951C22.6329 15.0101 22.6365 15.0252 22.6415 15.04H20.2693C20.2744 15.0252 20.278 15.0101 20.2815 14.995C20.2862 14.9752 20.2909 14.9554 20.299 14.9363L21.4554 12.2027L22.6118 14.9363C22.62 14.9554 22.6247 14.9752 22.6294 14.9951Z" fill="#FDA529"/>
</svg>
