<svg width="24" height="25" viewBox="0 0 24 25" fill="none" xmlns="http://www.w3.org/2000/svg">
<path fill-rule="evenodd" clip-rule="evenodd" d="M17.9067 16.8263L22.6587 21.5783V21.5784C23.2108 22.1424 23.206 23.0458 22.6478 23.6039C22.0897 24.162 21.1863 24.1668 20.6223 23.6146L15.8703 18.8626C15.4437 18.4322 15.3352 17.7795 15.5994 17.2342L13.6137 15.2485C10.3089 18.1883 5.26558 17.9678 2.22999 14.7507C-0.805591 11.5337 -0.733248 6.48608 2.39328 3.35733C5.51982 0.22859 10.5674 0.152679 13.7866 3.18599C17.0058 6.2193 17.2299 11.2624 14.2924 14.5693L16.2783 16.5554C16.8236 16.291 17.4763 16.3996 17.9067 16.8263ZM4.73357 14.3446C7.20878 15.9985 10.5076 15.6737 12.6127 13.5687C13.7868 12.401 14.4449 10.8122 14.4404 9.15636C14.4405 6.17942 12.3376 3.61701 9.41788 3.03619C6.49815 2.45538 3.57473 4.01792 2.43546 6.76823C1.29619 9.51855 2.25837 12.6906 4.73357 14.3446Z" fill="#362D1B"/>
</svg>
