<svg width="32" height="32" viewBox="0 0 32 32" fill="none" xmlns="http://www.w3.org/2000/svg">
<circle cx="16" cy="16" r="16" fill="#FFF7EB"/>
<path fill-rule="evenodd" clip-rule="evenodd" d="M19.9378 19.2174L23.1058 22.3854V22.3855C23.4739 22.7615 23.4706 23.3638 23.0985 23.7359C22.7264 24.1079 22.1242 24.1111 21.7482 23.743L18.5802 20.575C18.2958 20.2881 18.2234 19.8529 18.3996 19.4894L17.0758 18.1656C14.8726 20.1255 11.5104 19.9784 9.48666 17.8337C7.46294 15.689 7.51117 12.324 9.59552 10.2381C11.6799 8.15231 15.0449 8.1017 17.191 10.1239C19.3372 12.1461 19.4866 15.5082 17.5283 17.7128L18.8522 19.0368C19.2157 18.8606 19.6509 18.933 19.9378 19.2174ZM11.1558 17.563C12.8059 18.6657 15.0051 18.4491 16.4085 17.0458C17.1912 16.2673 17.63 15.2081 17.627 14.1042C17.627 12.1196 16.2251 10.4113 14.2786 10.0241C12.3321 9.6369 10.3832 10.6786 9.62368 12.5121C8.86416 14.3457 9.50562 16.4604 11.1558 17.563Z" fill="#FDA529"/>
</svg>
