<svg width="24" height="24" viewBox="0 0 24 24" fill="none" xmlns="http://www.w3.org/2000/svg">
<g opacity="0.3">
<path d="M6.33822 14.8444C6.45542 13.8739 6.85342 13.3306 7.60344 12.7736C8.67659 12.0193 10.0171 12.446 10.0171 12.446V9.91462C10.343 9.90629 10.669 9.92561 10.9914 9.97235V13.23C10.9914 13.23 9.65125 12.8033 8.5781 13.558C7.82849 14.1146 7.42967 14.6583 7.31288 15.6287C7.30921 16.1557 7.4081 16.8445 7.86349 17.4401C7.7509 17.3824 7.63614 17.3166 7.5192 17.2427C6.51606 16.5691 6.33333 15.5585 6.33822 14.8444ZM16.5264 5.23411C15.7881 4.42517 15.509 3.60842 15.4081 3.03467H16.3367C16.3367 3.03467 16.1516 4.53906 17.501 6.01849L17.5197 6.03838C17.156 5.8096 16.8225 5.53956 16.5264 5.23411ZM21 7.52756V10.7197C21 10.7197 19.815 10.6733 18.938 10.4501C17.7135 10.1381 16.9264 9.65953 16.9264 9.65953C16.9264 9.65953 16.3827 9.31824 16.3388 9.29445V15.8862C16.3388 16.2532 16.2382 17.1698 15.9318 17.9343C15.5318 18.9343 14.9144 19.5908 14.8009 19.725C14.8009 19.725 14.05 20.6123 12.7254 21.2098C11.5314 21.7489 10.4831 21.7352 10.1697 21.7489C10.1697 21.7489 8.35753 21.8207 6.72686 20.7609C6.37424 20.5273 6.04508 20.2628 5.74365 19.9707L5.75179 19.9765C7.38287 21.0363 9.19464 20.9645 9.19464 20.9645C9.5084 20.9509 10.5567 20.9645 11.7503 20.4255C13.0738 19.8279 13.8258 18.9406 13.8258 18.9406C13.9381 18.8064 14.5583 18.15 14.9567 17.1495C15.2624 16.3854 15.3637 15.4684 15.3637 15.1014V8.51047C15.4076 8.53465 15.9509 8.87594 15.9509 8.87594C15.9509 8.87594 16.7384 9.35491 17.9629 9.66655C18.8403 9.88966 20.025 9.93607 20.025 9.93607V7.43473C20.4303 7.52561 20.7758 7.55018 21 7.52756Z" fill="#EE1D52"/>
<path d="M20.0252 7.43473V9.93529C20.0252 9.93529 18.8405 9.88888 17.9631 9.66577C16.7386 9.35374 15.9511 8.87516 15.9511 8.87516C15.9511 8.87516 15.4078 8.53387 15.3639 8.50969V15.1022C15.3639 15.4692 15.2634 16.3862 14.9569 17.1503C14.5569 18.1507 13.9395 18.8072 13.826 18.9414C13.826 18.9414 13.0747 19.8287 11.7505 20.4263C10.5569 20.9653 9.50859 20.9516 9.19483 20.9653C9.19483 20.9653 7.38306 21.0371 5.75198 19.9773L5.74384 19.9715C5.57163 19.8047 5.40953 19.6286 5.25834 19.4441C4.73784 18.8095 4.41879 18.0591 4.33862 17.845C4.33848 17.844 4.33848 17.8431 4.33862 17.8422C4.20961 17.4701 3.93858 16.5765 3.97561 15.711C4.04113 14.184 4.57831 13.2467 4.72034 13.0119C5.09649 12.3716 5.58572 11.7987 6.16626 11.3188C6.67855 10.9046 7.25921 10.5751 7.88443 10.3437C8.56031 10.072 9.28406 9.92637 10.0169 9.91462V12.446C10.0169 12.446 8.67636 12.0208 7.60363 12.7736C6.85361 13.3306 6.4556 13.8739 6.3384 14.8444C6.33352 15.5585 6.51624 16.5691 7.51857 17.2431C7.63551 17.3172 7.75027 17.383 7.86286 17.4405C8.03797 17.6681 8.25109 17.8664 8.49364 18.0275C9.47278 18.6473 10.2932 18.6906 11.3423 18.288C12.0419 18.0189 12.5685 17.4124 12.8127 16.7404C12.9661 16.3207 12.9641 15.8983 12.9641 15.4614V3.03467H15.4058C15.5067 3.60842 15.7859 4.42517 16.5241 5.23411C16.8202 5.53956 17.1538 5.8096 17.5175 6.03838C17.6249 6.14954 18.1743 6.69911 18.8796 7.0365C19.2442 7.21089 19.6286 7.34452 20.0252 7.43473Z" fill="#362D1B"/>
<path d="M3.36719 17.0676V17.0696L3.42778 17.2338C3.42082 17.2147 3.3983 17.1566 3.36719 17.0676Z" fill="#362D1B"/>
<path d="M7.88461 10.3437C7.25939 10.5751 6.67873 10.9047 6.16644 11.3188C5.58572 11.7999 5.09661 12.374 4.72093 13.0155C4.57891 13.2495 4.04172 14.1876 3.9762 15.7146C3.93917 16.5801 4.2102 17.4737 4.33921 17.8458C4.33907 17.8467 4.33907 17.8476 4.33921 17.8485C4.4206 18.0607 4.73843 18.8112 5.25893 19.4477C5.41012 19.6322 5.57222 19.8083 5.74443 19.975C5.19268 19.6093 4.7006 19.1671 4.28427 18.6629C3.76825 18.0338 3.45001 17.2912 3.36699 17.072C3.36689 17.0704 3.36689 17.0688 3.36699 17.0673V17.0645C3.23758 16.6928 2.96573 15.7989 3.00358 14.9322C3.0691 13.4052 3.60628 12.4679 3.74831 12.2331C4.12388 11.5915 4.613 11.0174 5.19382 10.5364C5.706 10.1221 6.28669 9.79254 6.91199 9.56131C7.30202 9.40621 7.70833 9.29179 8.1239 9.22002C8.75019 9.11524 9.38984 9.10616 10.0191 9.19311V9.91469C9.2856 9.92619 8.56113 10.0718 7.88461 10.3437Z" fill="#362D1B"/>
<path d="M15.4078 3.03476H12.9661V15.4619C12.9661 15.8987 12.9661 16.32 12.8147 16.7408C12.5681 17.4125 12.0435 18.019 11.3444 18.2881C10.2948 18.6922 9.47442 18.6474 8.49569 18.0276C8.25273 17.8673 8.03905 17.6696 7.86328 17.4425C8.69713 17.8688 9.44349 17.8614 10.3681 17.5057C11.0668 17.2366 11.5922 16.6301 11.838 15.958C11.9919 15.5383 11.9898 15.1159 11.9898 14.6795V2.25H15.3615C15.3615 2.25 15.3236 2.55891 15.4078 3.03476ZM20.0252 6.74328V7.43483C19.6293 7.34447 19.2456 7.21085 18.8816 7.0366C18.1764 6.69921 17.627 6.14964 17.5195 6.03848C17.6442 6.11693 17.7736 6.1883 17.907 6.25222C18.7644 6.66255 19.6089 6.78502 20.0252 6.74328Z" fill="#362D1B"/>
</g>
</svg>
