<svg width="32" height="32" viewBox="0 0 32 32" fill="none" xmlns="http://www.w3.org/2000/svg">
<circle cx="16" cy="16" r="16" fill="#FFF7EB"/>
<path fill-rule="evenodd" clip-rule="evenodd" d="M16.32 9.91992C14.5526 9.91992 13.12 11.3526 13.12 13.1199C13.1219 14.8864 14.5535 16.3179 16.32 16.3199C18.0873 16.3199 19.52 14.8872 19.52 13.1199C19.52 11.3526 18.0873 9.91992 16.32 9.91992ZM11.2 22.0799C11.2 19.2522 13.4923 16.9599 16.32 16.9599C19.1476 16.9599 21.44 19.2522 21.44 22.0799V22.3999C21.44 22.5767 21.2967 22.7199 21.12 22.7199H11.52C11.3432 22.7199 11.2 22.5767 11.2 22.3999V22.0799Z" fill="#FDA529"/>
</svg>
