<?xml version="1.0" standalone="no"?>
<!DOCTYPE svg PUBLIC "-//W3C//DTD SVG 20010904//EN"
 "http://www.w3.org/TR/2001/REC-SVG-20010904/DTD/svg10.dtd">
<svg version="1.0" xmlns="http://www.w3.org/2000/svg"
 width="156.000000pt" height="40.000000pt" viewBox="0 0 156.000000 40.000000"
 preserveAspectRatio="xMidYMid meet">

<g transform="translate(0.000000,40.000000) scale(0.100000,-0.100000)"
fill="#000000" stroke="none">
<path d="M720 303 c0 -37 -3 -44 -12 -35 -19 19 -57 14 -83 -13 -49 -48 -22
-135 43 -135 15 0 33 5 40 12 9 9 12 9 12 0 0 -7 7 -12 15 -12 12 0 15 19 15
115 0 96 -3 115 -15 115 -11 0 -15 -12 -15 -47z m-11 -67 c18 -21 9 -66 -14
-82 -18 -12 -24 -11 -43 2 -24 17 -30 62 -10 82 16 16 53 15 67 -2z"/>
<path d="M800 330 c0 -15 5 -20 18 -18 9 2 17 10 17 18 0 8 -8 16 -17 18 -13
2 -18 -3 -18 -18z"/>
<path d="M100 216 l0 -96 65 0 c50 0 65 3 65 14 0 11 -14 16 -47 18 l-48 3 -5
74 c-3 47 -10 76 -17 79 -10 3 -13 -20 -13 -92z"/>
<path d="M276 249 c-30 -36 -32 -55 -9 -89 22 -33 33 -40 64 -40 64 0 94 99
43 139 -37 29 -68 26 -98 -10z m81 -11 c20 -26 21 -48 4 -69 -22 -27 -66 -20
-76 12 -14 43 46 90 72 57z"/>
<path d="M461 264 c-16 -12 -20 -19 -12 -27 8 -8 14 -8 23 1 17 17 55 15 62
-3 4 -11 -1 -15 -19 -15 -48 0 -75 -17 -75 -49 0 -40 17 -50 79 -49 l53 1 -4
65 c-3 48 -9 68 -23 78 -25 18 -55 18 -84 -2z m77 -86 c-2 -6 -13 -17 -24 -25
-17 -11 -23 -11 -39 1 -10 7 -15 18 -11 24 10 16 79 16 74 0z"/>
<path d="M940 270 c-8 -5 -23 -7 -32 -4 -16 5 -18 -3 -18 -70 0 -44 4 -76 10
-76 6 0 10 19 10 43 0 47 22 87 49 87 29 0 41 -22 41 -77 0 -40 4 -53 15 -53
25 0 21 114 -5 140 -22 22 -46 25 -70 10z"/>
<path d="M1093 260 c-60 -55 -2 -158 72 -130 21 8 25 7 25 -8 0 -10 -5 -23
-12 -30 -15 -15 -60 -16 -75 -1 -6 6 -17 9 -24 7 -25 -8 29 -48 65 -48 57 0
76 35 76 136 0 80 -1 84 -22 84 -13 -1 -36 2 -53 5 -22 5 -36 1 -52 -15z m87
-31 c26 -47 -26 -101 -65 -69 -18 15 -20 61 -3 78 19 19 56 14 68 -9z"/>
<path d="M800 195 c0 -60 3 -75 15 -75 12 0 15 15 15 75 0 60 -3 75 -15 75
-12 0 -15 -15 -15 -75z"/>
<path d="M1267 154 c-14 -14 -7 -35 11 -32 9 2 17 10 17 17 0 16 -18 25 -28
15z"/>
<path d="M1347 154 c-14 -14 -7 -35 11 -32 9 2 17 10 17 17 0 16 -18 25 -28
15z"/>
<path d="M1430 140 c0 -11 7 -20 15 -20 8 0 15 9 15 20 0 11 -7 20 -15 20 -8
0 -15 -9 -15 -20z"/>
</g>
</svg>
